<svg xmlns="http://www.w3.org/2000/svg" width="32" height="32" viewBox="0 0 32 32" fill="none">
    <path d="M25.5 9.92938C25.3329 10.08 25.117 10.1653 24.892 10.1694H3.52532C2.76665 10.1694 2.38399 9.30271 2.90932 8.79604L6.41865 5.41204C6.58174 5.25453 6.79862 5.16492 7.02532 5.16138H28.476C29.2413 5.16138 29.616 6.03604 29.084 6.54538L25.5 9.92938Z" fill="url(#paint0_linear_1342_7133)"/>
    <path d="M25.5 26.6054C25.3319 26.7537 25.1161 26.8365 24.892 26.8387H3.52532C2.76665 26.8387 2.38399 25.9787 2.90932 25.4707L6.41865 22.0787C6.58245 21.9235 6.79963 21.8371 7.02532 21.8374H28.476C29.2413 21.8374 29.616 22.7041 29.084 23.2107L25.5 26.6054Z" fill="url(#paint1_linear_1342_7133)"/>
    <path d="M25.5 13.7374C25.3319 13.5891 25.1161 13.5063 24.892 13.504H3.52532C2.76665 13.504 2.38399 14.364 2.90932 14.8707L6.41865 18.264C6.58542 18.4144 6.80081 18.4996 7.02532 18.504H28.476C29.2413 18.504 29.616 17.6374 29.084 17.1307L25.5 13.7374Z" fill="url(#paint2_linear_1342_7133)"/>
    <defs>
        <linearGradient id="paint0_linear_1342_7133" x1="2.66799" y1="79.764" x2="30.0133" y2="79.5134" gradientUnits="userSpaceOnUse">
            <stop stop-color="#599DB0"/>
            <stop offset="1" stop-color="#47F8C3"/>
        </linearGradient>
        <linearGradient id="paint1_linear_1342_7133" x1="2.66799" y1="11.8041" x2="29.8387" y2="11.5961" gradientUnits="userSpaceOnUse">
            <stop stop-color="#C44FE2"/>
            <stop offset="1" stop-color="#73B0D0"/>
        </linearGradient>
        <linearGradient id="paint2_linear_1342_7133" x1="4.20265" y1="16.004" x2="28.3" y2="16.004" gradientUnits="userSpaceOnUse">
            <stop stop-color="#778CBF"/>
            <stop offset="1" stop-color="#5DCDC9"/>
        </linearGradient>
    </defs>
</svg>
