<svg width="198" height="84" viewBox="0 0 198 84" fill="none" xmlns="http://www.w3.org/2000/svg">
<g filter="url(#filter0_df_78_1540)">
<path d="M27.915 19.5452C31.3109 19.5452 34.098 20.2355 36.2832 21.6086C38.4683 22.9854 39.587 25.0228 39.6387 27.7209V28.1829H31.6582V28.0276C31.6582 27.2563 31.3741 26.6138 30.8096 26.1008C30.2449 25.5878 29.3549 25.3294 28.2256 25.3293C27.0961 25.3293 26.2284 25.4991 25.623 25.8313C25.0178 26.1635 24.7149 26.5766 24.7148 27.0637C24.7148 27.7577 25.1251 28.2745 25.9482 28.6067C26.7714 28.9425 28.093 29.2897 29.9199 29.6477C32.0533 30.0869 33.8069 30.5407 35.1836 31.0168C36.3499 31.4229 37.3944 32.0474 38.3135 32.8889H39.79C39.9487 33.0365 40.1078 33.1875 40.2627 33.3499C41.2888 34.4314 41.816 35.8971 41.8418 37.7463C41.8418 40.8837 40.7788 43.2088 38.6602 44.7258C36.5414 46.2429 33.7064 47.0002 30.1592 47.0002C26.0215 47.0002 22.8025 46.3061 20.5029 44.9182C18.2035 43.5303 17.0518 41.0752 17.0518 37.554H25.1104C25.1104 38.8899 25.4568 39.7832 26.1504 40.2336C26.848 40.684 27.9262 40.9094 29.3916 40.9094C30.4693 40.9094 31.3626 40.7952 32.0713 40.5627C32.7763 40.3339 33.1308 39.8576 33.1309 39.1379C33.1309 38.4957 32.7393 38.0118 31.9531 37.6907C31.1706 37.3696 29.8934 37.0299 28.1182 36.6682C25.959 36.2032 24.1724 35.7239 22.7588 35.2219C21.4116 34.7421 20.2304 33.9629 19.208 32.8889H17.7314C17.6798 32.8373 17.628 32.7889 17.5801 32.7336C16.5282 31.5784 16.0001 30.0098 16 28.0315C16 25.1265 17.1261 22.9855 19.374 21.6086C21.6256 20.2319 24.5192 19.5452 27.915 19.5452ZM59.4893 20.01C61.1354 20.01 62.6013 20.3901 63.8857 21.1467C65.1703 21.9034 66.1748 22.9446 66.8945 24.2698C67.6105 25.5911 67.9716 27.0749 67.9717 28.7209V29.2229C67.9717 30.5443 67.7356 31.7668 67.2705 32.8889H68.7471C68.6327 33.1657 68.5074 33.4355 68.3672 33.6975C67.6474 35.0336 66.6428 36.0815 65.3584 36.8381C64.0703 37.5947 62.6089 37.9748 60.9629 37.9749H54.6025V46.5354H46.083V32.8889H44.6064V20.01H59.4893ZM80.9648 32.8889H82.4414V39.7502H96.0508V46.5344H73.9219V32.8889H72.4453V20.01H80.9648V32.8889ZM107.069 32.8889H108.546V46.5344H100.022V32.8889H98.5459V20.01H107.069V32.8889ZM137.101 26.7942H128.427V32.8889H129.903V46.5344H121.384V32.8889H119.907V26.7942H111.192V20.01H137.101V26.7942ZM136.743 39.093C136.972 38.6765 137.57 38.6763 137.799 39.093L138.54 40.4485C138.595 40.5517 138.681 40.6324 138.78 40.6877L140.135 41.4299C140.552 41.6588 140.552 42.2567 140.135 42.4856L138.78 43.2278C138.677 43.2832 138.595 43.3684 138.54 43.468L137.799 44.8225C137.57 45.2394 136.972 45.2392 136.743 44.8225L136.001 43.468C135.946 43.3647 135.86 43.2832 135.761 43.2278L134.406 42.4856C133.989 42.2567 133.989 41.6588 134.406 41.4299L135.761 40.6877C135.864 40.6324 135.946 40.5481 136.001 40.4485L136.743 39.093ZM149.569 27.1418C150.237 25.9238 151.987 25.9238 152.651 27.1418L154.814 31.095C154.977 31.3903 155.217 31.6298 155.513 31.7922L159.466 33.9553C160.684 34.6234 160.684 36.3729 159.466 37.0374L155.513 39.2004C155.217 39.3628 154.977 39.6025 154.814 39.8977L152.651 43.8518C151.983 45.0694 150.234 45.0696 149.569 43.8518L147.406 39.8977C147.244 39.6026 147.004 39.3628 146.709 39.2004L142.756 37.0374C141.538 36.3693 141.538 34.6197 142.756 33.9553L146.709 31.7922C147.004 31.6299 147.244 31.3901 147.406 31.095L149.569 27.1418ZM57.002 25.6985H53.4951V31.1721H57.002C57.6775 31.1721 58.2244 31.0416 58.6455 30.7815C58.7509 30.7165 58.8479 30.6428 58.9375 30.5618L59.0244 30.4788C59.3621 30.1328 59.5737 29.6909 59.6582 29.1555C59.6864 28.9771 59.7002 28.7877 59.7002 28.5881V28.2825C59.7002 28.0769 59.6863 27.8826 59.6582 27.7004C59.5742 27.1517 59.363 26.7089 59.0244 26.3704C58.5741 25.9201 57.8989 25.6946 57.002 25.6946V25.6985ZM144.247 17.4592C144.579 16.8468 145.458 16.8466 145.794 17.4592L146.879 19.4456C146.96 19.5931 147.082 19.715 147.229 19.7961L149.215 20.8811C149.828 21.2133 149.828 22.0921 149.215 22.428L147.229 23.5129C147.082 23.5941 146.96 23.716 146.879 23.8635L145.794 25.8499C145.462 26.4624 144.583 26.4623 144.247 25.8499L143.162 23.8635C143.081 23.716 142.959 23.5941 142.812 23.5129L140.825 22.428C140.212 22.0958 140.212 21.217 140.825 20.8811L142.812 19.7961C142.959 19.7149 143.081 19.5931 143.162 19.4456L144.247 17.4592Z" fill="white"/>
</g>
<defs>
<filter id="filter0_df_78_1540" x="-20.8" y="-19.8001" width="217.979" height="103.6" filterUnits="userSpaceOnUse" color-interpolation-filters="sRGB">
<feFlood flood-opacity="0" result="BackgroundImageFix"/>
<feColorMatrix in="SourceAlpha" type="matrix" values="0 0 0 0 0 0 0 0 0 0 0 0 0 0 0 0 0 0 127 0" result="hardAlpha"/>
<feOffset/>
<feGaussianBlur stdDeviation="18.4"/>
<feComposite in2="hardAlpha" operator="out"/>
<feColorMatrix type="matrix" values="0 0 0 0 1 0 0 0 0 1 0 0 0 0 1 0 0 0 1 0"/>
<feBlend mode="normal" in2="BackgroundImageFix" result="effect1_dropShadow_78_1540"/>
<feBlend mode="normal" in="SourceGraphic" in2="effect1_dropShadow_78_1540" result="shape"/>
<feGaussianBlur stdDeviation="1" result="effect2_foregroundBlur_78_1540"/>
</filter>
</defs>
</svg>
